<svg width="20" height="20" viewBox="0 0 20 20" stroke="transparent"   xmlns="http://www.w3.org/2000/svg">
<path d="M14.8467 14.7744H19.9686V8.23359C19.9686 8.23359 20.4185 4.56522 17.9268 2.0735C15.435 -0.418228 11.7667 0.0316669 11.7667 0.0316669H5.12207V5.18815H11.7667C11.7667 5.18815 13.354 5.35656 14.0161 6.01873C14.6783 6.68089 14.8467 8.2682 14.8467 8.2682V14.7744Z" fill="current-color"/>
<path d="M5.15328 5.18815L0.0314058 5.18815L0.0314052 11.7289C0.0314052 11.7289 -0.418489 15.3973 2.07323 17.889C4.56496 20.3808 8.23333 19.9309 8.23333 19.9309L14.8779 19.9309L14.8779 14.7744L8.23333 14.7744C8.23333 14.7744 6.64602 14.606 5.98386 13.9438C5.32169 13.2816 5.15328 11.6943 5.15328 11.6943L5.15328 5.18815Z" fill="current-color"/>
</svg>
