<svg width="20" height="18" viewBox="0 0 20 18" stroke="transparent"  xmlns="http://www.w3.org/2000/svg">
<path d="M16.9094 9.00003C16.9094 10.1548 15.9732 11.0909 14.8184 11.0909C13.6637 11.0909 12.7275 10.1548 12.7275 9.00003C12.7275 7.84525 13.6637 6.90912 14.8184 6.90912C15.9732 6.90912 16.9094 7.84525 16.9094 9.00003Z" fill="current-color"/>
<path d="M16.7943 6.36364V5.25692H15.7422L15.7515 5.27273H8.18182V5.28129C5.94914 5.42193 4.18182 7.2773 4.18182 9.54545C4.18182 11.9052 6.09478 13.8182 8.45455 13.8182C10.4978 13.8182 12.2061 12.384 12.6276 10.4673C13.1007 11.1724 13.9053 11.6364 14.8182 11.6364C15.6248 11.6364 16.3469 11.2741 16.8305 10.7034C16.266 14.8248 12.7311 18 8.45455 18C3.78523 18 0 14.2148 0 9.54545C0 5.09021 3.4461 1.43985 7.81818 1.1145V1.10672H7.93322C8.10565 1.09623 8.27948 1.09091 8.45455 1.09091C8.62961 1.09091 8.80344 1.09623 8.97587 1.10672H16.7943V0L20 3.22793L16.7943 6.36364Z" fill="current-color"/>
</svg>
