<svg width="20" height="20" viewBox="0 0 20 20" fill="none" xmlns="http://www.w3.org/2000/svg">
<path d="M17 19H3C1.89543 19 1 18.1046 1 17V9.04527C1 7.76085 1.61679 6.55456 2.65804 5.80255L8.24353 1.76858C9.29207 1.0113 10.7079 1.0113 11.7565 1.76858L17.342 5.80255C18.3832 6.55456 19 7.76085 19 9.04527V17C19 18.1046 18.1046 19 17 19Z" stroke="current-color" stroke-width="1.5"/>
<path d="M12.8 16H7.2C7.08954 16 7 15.9105 7 15.8V12C7 11.1716 7.67157 10.5 8.5 10.5H11.5C12.3284 10.5 13 11.1716 13 12V15.8C13 15.9105 12.9105 16 12.8 16Z" stroke="current-color" stroke-width="1.5"/>
</svg>
