<svg width="1861" height="1080" viewBox="0 0 1861 1080" fill="none" xmlns="http://www.w3.org/2000/svg">
<line opacity="0.8" x1="0.75" y1="1080" x2="0.75" stroke="#8491A4" stroke-width="0.5" stroke-dasharray="8 8"/>
<line opacity="0.8" x1="24.75" y1="1080" x2="24.75" stroke="#8491A4" stroke-width="0.5" stroke-dasharray="8 8"/>
<line opacity="0.8" x1="48.75" y1="1080" x2="48.75" stroke="#8491A4" stroke-width="0.5" stroke-dasharray="8 8"/>
<line opacity="0.8" x1="72.75" y1="1080" x2="72.75" stroke="#8491A4" stroke-width="0.5" stroke-dasharray="8 8"/>
<line opacity="0.8" x1="96.75" y1="1080" x2="96.75" stroke="#8491A4" stroke-width="0.5" stroke-dasharray="8 8"/>
<line opacity="0.8" x1="120.75" y1="1080" x2="120.75" stroke="#8491A4" stroke-width="0.5" stroke-dasharray="8 8"/>
<line opacity="0.8" x1="144.75" y1="1080" x2="144.75" stroke="#8491A4" stroke-width="0.5" stroke-dasharray="8 8"/>
<line opacity="0.8" x1="168.75" y1="1080" x2="168.75" stroke="#8491A4" stroke-width="0.5" stroke-dasharray="8 8"/>
<line opacity="0.8" x1="192.75" y1="1080" x2="192.75" stroke="#8491A4" stroke-width="0.5" stroke-dasharray="8 8"/>
<line opacity="0.8" x1="216.75" y1="1080" x2="216.75" stroke="#8491A4" stroke-width="0.5" stroke-dasharray="8 8"/>
<line opacity="0.8" x1="240.75" y1="1080" x2="240.75" stroke="#8491A4" stroke-width="0.5" stroke-dasharray="8 8"/>
<line opacity="0.8" x1="264.75" y1="1080" x2="264.75" stroke="#8491A4" stroke-width="0.5" stroke-dasharray="8 8"/>
<line opacity="0.8" x1="288.75" y1="1080" x2="288.75" stroke="#8491A4" stroke-width="0.5" stroke-dasharray="8 8"/>
<line opacity="0.8" x1="312.75" y1="1080" x2="312.75" stroke="#8491A4" stroke-width="0.5" stroke-dasharray="8 8"/>
<line opacity="0.8" x1="336.75" y1="1080" x2="336.75" stroke="#8491A4" stroke-width="0.5" stroke-dasharray="8 8"/>
<line opacity="0.8" x1="360.75" y1="1080" x2="360.75" stroke="#8491A4" stroke-width="0.5" stroke-dasharray="8 8"/>
<line opacity="0.8" x1="384.75" y1="1080" x2="384.75" stroke="#8491A4" stroke-width="0.5" stroke-dasharray="8 8"/>
<line opacity="0.8" x1="738.75" y1="1080" x2="738.75" stroke="#8491A4" stroke-width="0.5" stroke-dasharray="8 8"/>
<line opacity="0.8" x1="762.75" y1="1080" x2="762.75" stroke="#8491A4" stroke-width="0.5" stroke-dasharray="8 8"/>
<line opacity="0.8" x1="786.75" y1="1080" x2="786.75" stroke="#8491A4" stroke-width="0.5" stroke-dasharray="8 8"/>
<line opacity="0.8" x1="810.75" y1="1080" x2="810.75" stroke="#8491A4" stroke-width="0.5" stroke-dasharray="8 8"/>
<line opacity="0.8" x1="834.75" y1="1080" x2="834.75" stroke="#8491A4" stroke-width="0.5" stroke-dasharray="8 8"/>
<line opacity="0.8" x1="858.75" y1="1080" x2="858.75" stroke="#8491A4" stroke-width="0.5" stroke-dasharray="8 8"/>
<line opacity="0.8" x1="882.75" y1="1080" x2="882.75" stroke="#8491A4" stroke-width="0.5" stroke-dasharray="8 8"/>
<line opacity="0.8" x1="906.75" y1="1080" x2="906.75" stroke="#8491A4" stroke-width="0.5" stroke-dasharray="8 8"/>
<line opacity="0.8" x1="930.75" y1="1080" x2="930.75" stroke="#8491A4" stroke-width="0.5" stroke-dasharray="8 8"/>
<line opacity="0.8" x1="954.75" y1="1080" x2="954.75" stroke="#8491A4" stroke-width="0.5" stroke-dasharray="8 8"/>
<line opacity="0.8" x1="978.75" y1="1080" x2="978.75" stroke="#8491A4" stroke-width="0.5" stroke-dasharray="8 8"/>
<line opacity="0.8" x1="1002.75" y1="1080" x2="1002.75" stroke="#8491A4" stroke-width="0.5" stroke-dasharray="8 8"/>
<line opacity="0.8" x1="1026.75" y1="1080" x2="1026.75" stroke="#8491A4" stroke-width="0.5" stroke-dasharray="8 8"/>
<line opacity="0.8" x1="1050.75" y1="1080" x2="1050.75" stroke="#8491A4" stroke-width="0.5" stroke-dasharray="8 8"/>
<line opacity="0.8" x1="1074.75" y1="1080" x2="1074.75" stroke="#8491A4" stroke-width="0.5" stroke-dasharray="8 8"/>
<line opacity="0.8" x1="1098.75" y1="1080" x2="1098.75" stroke="#8491A4" stroke-width="0.5" stroke-dasharray="8 8"/>
<line opacity="0.8" x1="1122.75" y1="1080" x2="1122.75" stroke="#8491A4" stroke-width="0.5" stroke-dasharray="8 8"/>
<line opacity="0.8" x1="1476.75" y1="1080" x2="1476.75" stroke="#8491A4" stroke-width="0.5" stroke-dasharray="8 8"/>
<line opacity="0.8" x1="1500.75" y1="1080" x2="1500.75" stroke="#8491A4" stroke-width="0.5" stroke-dasharray="8 8"/>
<line opacity="0.8" x1="1524.75" y1="1080" x2="1524.75" stroke="#8491A4" stroke-width="0.5" stroke-dasharray="8 8"/>
<line opacity="0.8" x1="1548.75" y1="1080" x2="1548.75" stroke="#8491A4" stroke-width="0.5" stroke-dasharray="8 8"/>
<line opacity="0.8" x1="1572.75" y1="1080" x2="1572.75" stroke="#8491A4" stroke-width="0.5" stroke-dasharray="8 8"/>
<line opacity="0.8" x1="1596.75" y1="1080" x2="1596.75" stroke="#8491A4" stroke-width="0.5" stroke-dasharray="8 8"/>
<line opacity="0.8" x1="1620.75" y1="1080" x2="1620.75" stroke="#8491A4" stroke-width="0.5" stroke-dasharray="8 8"/>
<line opacity="0.8" x1="1644.75" y1="1080" x2="1644.75" stroke="#8491A4" stroke-width="0.5" stroke-dasharray="8 8"/>
<line opacity="0.8" x1="1668.75" y1="1080" x2="1668.75" stroke="#8491A4" stroke-width="0.5" stroke-dasharray="8 8"/>
<line opacity="0.8" x1="1692.75" y1="1080" x2="1692.75" stroke="#8491A4" stroke-width="0.5" stroke-dasharray="8 8"/>
<line opacity="0.8" x1="1716.75" y1="1080" x2="1716.75" stroke="#8491A4" stroke-width="0.5" stroke-dasharray="8 8"/>
<line opacity="0.8" x1="1740.75" y1="1080" x2="1740.75" stroke="#8491A4" stroke-width="0.5" stroke-dasharray="8 8"/>
<line opacity="0.8" x1="1764.75" y1="1080" x2="1764.75" stroke="#8491A4" stroke-width="0.5" stroke-dasharray="8 8"/>
<line opacity="0.8" x1="1788.75" y1="1080" x2="1788.75" stroke="#8491A4" stroke-width="0.5" stroke-dasharray="8 8"/>
<line opacity="0.8" x1="1812.75" y1="1080" x2="1812.75" stroke="#8491A4" stroke-width="0.5" stroke-dasharray="8 8"/>
<line opacity="0.8" x1="1836.75" y1="1080" x2="1836.75" stroke="#8491A4" stroke-width="0.5" stroke-dasharray="8 8"/>
<line opacity="0.8" x1="1860.75" y1="1080" x2="1860.75" stroke="#8491A4" stroke-width="0.5" stroke-dasharray="8 8"/>
</svg>
