<svg width="108" height="74" viewBox="0 0 108 74" fill="none" xmlns="http://www.w3.org/2000/svg">
<g filter="url(#filter0_d_849_107)">
<path d="M1.50799 54.2646L9.2993 25.0472C10.1371 22.0313 11.2052 19.5389 12.5038 17.5701C13.8023 15.5594 15.3522 14.0933 17.1534 13.1718C18.9547 12.2083 20.7559 11.4962 22.5571 11.0355C24.4002 10.5747 26.2433 10.3443 28.0864 10.3443L34.4954 10.2186L33.0502 15.6851H27.1439C25.7616 15.7689 24.463 15.9783 23.2483 16.3134C22.0335 16.6067 20.9025 17.0465 19.8553 17.6329C18.808 18.2194 17.9284 19.0781 17.2163 20.2091C16.5042 21.2982 15.9177 22.6386 15.4569 24.2304L14.0118 29.5084H29.3431L27.8979 34.9749H12.5666L7.41431 54.2646H1.50799ZM37.4323 10.2186H43.3387L31.5889 54.2646H25.6825L37.4323 10.2186ZM38.9232 54.2646L46.9658 24.1048H52.4323L44.3896 54.2646H38.9232ZM48.411 17.1303C48.5366 16.6695 48.7461 16.2506 49.0393 15.8736C49.3325 15.4547 49.6886 15.0987 50.1074 14.8055C50.5263 14.5541 50.9452 14.3656 51.3641 14.24C51.8249 14.0724 52.2647 13.9886 52.6836 13.9886C53.1444 13.9886 53.5423 14.0515 53.8774 14.1771C54.2125 14.3028 54.5267 14.5122 54.8199 14.8055C55.155 15.0987 55.3435 15.4547 55.3854 15.8736C55.4692 16.2506 55.4483 16.7114 55.3226 17.2559C55.155 17.8005 54.9247 18.2822 54.6314 18.7011C54.3382 19.12 53.9822 19.476 53.5633 19.7693C53.1025 20.0625 52.6627 20.2719 52.2438 20.3976C51.8249 20.5233 51.406 20.5861 50.9871 20.5861C50.5682 20.628 50.1703 20.5861 49.7933 20.4604C49.4163 20.3348 49.0812 20.1253 48.788 19.8321C48.4947 19.5389 48.3062 19.1828 48.2225 18.7639C48.1806 18.3032 48.2434 17.8005 48.411 17.2559V17.1303ZM51.3243 54.2646L56.1625 35.9802C56.6233 34.3047 57.3354 32.7338 58.2988 31.2677C59.3042 29.7597 60.5818 28.3565 62.1316 27.0579C63.6815 25.8012 65.3571 24.8587 67.1583 24.2304C68.9595 23.5602 70.9073 23.2251 73.0018 23.2251C73.3369 23.2251 73.6929 23.246 74.0699 23.2879C74.4888 23.3298 74.9077 23.3926 75.3266 23.4764C75.7874 23.5602 76.2272 23.6649 76.6461 23.7906C77.1069 23.9163 77.5676 24.0838 78.0284 24.2933C78.7824 24.6702 79.4736 25.152 80.1019 25.7384C80.7302 26.3249 81.3167 27.037 81.8612 27.8747C82.4058 28.6706 82.699 29.655 82.7409 30.8279C82.8247 32.0008 82.6781 33.3412 82.3011 34.8492C82.2592 34.8911 82.2173 34.9539 82.1754 35.0377C82.1754 35.0796 82.1754 35.1424 82.1754 35.2262C82.1754 35.2681 82.1545 35.31 82.1126 35.3519C82.1126 35.3519 82.1126 35.3728 82.1126 35.4147C82.1126 35.4566 82.0916 35.4985 82.0497 35.5404C82.0497 35.5404 82.0497 35.5613 82.0497 35.6032L77.0859 54.2646H71.1168L75.8293 36.4829C76.0806 35.5613 76.1853 34.6607 76.1434 33.7811C76.1434 32.8595 75.9759 32.0008 75.6408 31.2049C75.3475 30.3671 74.803 29.7388 74.0071 29.3199C73.2531 28.901 72.2687 28.6916 71.0539 28.6916C69.923 28.6916 68.8757 28.8801 67.9123 29.2571C66.9488 29.6341 66.0482 30.1996 65.2105 30.9536C64.4146 31.7076 63.7234 32.5244 63.137 33.4041C62.5505 34.2418 62.0479 35.1424 61.629 36.1059L56.7908 54.2646H51.3243ZM83.6147 44.3998L91.029 16.6904H96.9353L94.9246 24.1048H106.36L104.915 29.5084H93.4795L89.3953 44.8397C89.2278 45.4261 89.123 45.9497 89.0812 46.4105C89.0393 46.8713 89.0602 47.3111 89.144 47.73C89.1859 48.1489 89.4582 48.4631 89.9608 48.6725C90.5054 48.8401 91.2803 48.9238 92.2856 48.9238L99.2601 48.7982L97.815 54.2646H90.4007C90.3588 54.2646 90.3169 54.2646 90.275 54.2646C90.2331 54.2646 90.1912 54.2646 90.1493 54.2646C90.1074 54.2646 90.0655 54.2646 90.0237 54.2646C90.0237 54.2646 89.9818 54.2856 89.898 54.3275C89.8561 54.3275 89.8142 54.3275 89.7723 54.3275C89.7304 54.3275 89.6885 54.3275 89.6467 54.3275C89.6048 54.3275 89.5629 54.3275 89.521 54.3275C89.521 54.3275 89.5 54.3275 89.4582 54.3275C88.0339 54.3275 86.8611 54.118 85.9395 53.6992C85.0179 53.2803 84.3268 52.631 83.866 51.7513C83.4471 50.8717 83.1958 49.9292 83.112 48.9238C83.0282 47.9185 83.0911 46.8713 83.3005 45.7822C83.3005 45.6984 83.3005 45.6146 83.3005 45.5308C83.3424 45.4052 83.3843 45.2795 83.4262 45.1538C83.4262 45.0701 83.4262 44.9863 83.4262 44.9025C83.4681 44.7768 83.51 44.6512 83.5518 44.5255L83.6147 44.3998Z" fill="#E0D9FD"/>
</g>
<g filter="url(#filter1_d_849_107)">
<mask id="mask0_849_107" style="mask-type:luminance" maskUnits="userSpaceOnUse" x="40" y="0" width="23" height="24">
<path d="M40.1592 6.08521L55.0756 -3.88117e-05L62.0562 17.1112L47.1398 23.1964L40.1592 6.08521Z" fill="white"/>
</mask>
<g mask="url(#mask0_849_107)">
<mask id="mask1_849_107" style="mask-type:luminance" maskUnits="userSpaceOnUse" x="44" y="0" width="16" height="20">
<path d="M53.2878 4.05397C53.1072 5.21026 52.8669 6.356 52.7029 7.51947L52.693 7.61375C52.6604 8.11262 53.284 8.39963 53.6215 8.01891L53.644 7.98905C54.9391 6.31576 55.1433 4.43496 54.5321 2.44305C54.3342 1.78816 53.9446 1.19056 53.8385 0.505209C54.401 1.4416 55.2821 2.20639 55.8173 3.16088C56.8934 5.06731 57.1199 7.15383 56.9093 9.30775C56.8501 9.89402 56.5476 10.6837 57.3971 10.8437C58.2466 11.0037 58.3854 10.2045 58.596 9.59808L58.7688 9.03499C59.3076 10.3557 59.2869 11.53 59.03 12.7035C58.8657 13.4575 58.5797 14.1849 58.401 14.9378C58.4034 14.9438 58.4034 14.9438 58.3974 14.9463C58.3926 14.9704 58.3893 14.9946 58.3872 15.019C58.3854 15.0436 58.385 15.068 58.3862 15.0926C58.3873 15.1172 58.3898 15.1416 58.3939 15.1657C58.398 15.19 58.4037 15.214 58.4107 15.2376C58.4178 15.2609 58.4262 15.2839 58.4362 15.3066C58.446 15.329 58.4574 15.3509 58.47 15.3719C58.4825 15.3931 58.4963 15.4132 58.5115 15.4328C58.5266 15.4521 58.5427 15.4705 58.5601 15.4877C58.5776 15.5052 58.5958 15.5215 58.6152 15.5367C58.6346 15.5517 58.6549 15.5655 58.676 15.5783C58.697 15.5909 58.7187 15.6023 58.7413 15.6121C58.7638 15.6219 58.7868 15.6306 58.8102 15.6377C58.8338 15.6449 58.8578 15.6505 58.882 15.6546C58.9061 15.6587 58.9306 15.6615 58.9551 15.6625C58.9796 15.6636 59.0042 15.6632 59.0287 15.6614C59.0532 15.6595 59.0774 15.6562 59.1016 15.6514L59.6376 15.3495C59.3252 16.1699 58.9011 16.9281 58.3658 17.6239C57.8732 18.2602 57.3067 18.8222 56.6662 19.3097C57.4924 16.0788 56.7677 13.5708 54.0101 11.9824C51.8742 10.7444 49.6452 10.8765 47.6688 12.3768C45.4503 14.0658 44.8646 16.3727 45.5629 19.037C44.5169 17.153 44.3818 15.2234 45.572 13.3778C46.5307 11.8833 47.5668 10.9192 47.8434 10.6955C49.0002 9.7377 50.7489 7.90032 53.2878 4.05397Z" fill="white"/>
</mask>
<g mask="url(#mask1_849_107)">
<path d="M40.0244 6.14075L47.0047 23.2511L62.0562 17.1108L55.0759 0.000377881L40.0244 6.14075Z" fill="url(#paint0_linear_849_107)"/>
</g>
</g>
</g>
<g filter="url(#filter2_d_849_107)">
<circle cx="51.123" cy="16.9656" r="4.97547" transform="rotate(-22.1933 51.123 16.9656)" fill="url(#paint1_linear_849_107)"/>
</g>
<defs>
<filter id="filter0_d_849_107" x="0.0862489" y="10.2186" width="107.696" height="46.952" filterUnits="userSpaceOnUse" color-interpolation-filters="sRGB">
<feFlood flood-opacity="0" result="BackgroundImageFix"/>
<feColorMatrix in="SourceAlpha" type="matrix" values="0 0 0 0 0 0 0 0 0 0 0 0 0 0 0 0 0 0 127 0" result="hardAlpha"/>
<feOffset dy="1.42156"/>
<feGaussianBlur stdDeviation="0.710782"/>
<feComposite in2="hardAlpha" operator="out"/>
<feColorMatrix type="matrix" values="0 0 0 0 0 0 0 0 0 0 0 0 0 0 0 0 0 0 0.25 0"/>
<feBlend mode="normal" in2="BackgroundImageFix" result="effect1_dropShadow_849_107"/>
<feBlend mode="normal" in="SourceGraphic" in2="effect1_dropShadow_849_107" result="shape"/>
</filter>
<filter id="filter1_d_849_107" x="43.3277" y="0.505249" width="17.7109" height="21.6062" filterUnits="userSpaceOnUse" color-interpolation-filters="sRGB">
<feFlood flood-opacity="0" result="BackgroundImageFix"/>
<feColorMatrix in="SourceAlpha" type="matrix" values="0 0 0 0 0 0 0 0 0 0 0 0 0 0 0 0 0 0 127 0" result="hardAlpha"/>
<feOffset dy="1.40086"/>
<feGaussianBlur stdDeviation="0.700431"/>
<feComposite in2="hardAlpha" operator="out"/>
<feColorMatrix type="matrix" values="0 0 0 0 0 0 0 0 0 0 0 0 0 0 0 0 0 0 0.25 0"/>
<feBlend mode="normal" in2="BackgroundImageFix" result="effect1_dropShadow_849_107"/>
<feBlend mode="normal" in="SourceGraphic" in2="effect1_dropShadow_849_107" result="shape"/>
</filter>
<filter id="filter2_d_849_107" x="45.0092" y="11.9889" width="12.2276" height="12.228" filterUnits="userSpaceOnUse" color-interpolation-filters="sRGB">
<feFlood flood-opacity="0" result="BackgroundImageFix"/>
<feColorMatrix in="SourceAlpha" type="matrix" values="0 0 0 0 0 0 0 0 0 0 0 0 0 0 0 0 0 0 127 0" result="hardAlpha"/>
<feOffset dy="1.13725"/>
<feGaussianBlur stdDeviation="0.568625"/>
<feComposite in2="hardAlpha" operator="out"/>
<feColorMatrix type="matrix" values="0 0 0 0 0 0 0 0 0 0 0 0 0 0 0 0 0 0 0.25 0"/>
<feBlend mode="normal" in2="BackgroundImageFix" result="effect1_dropShadow_849_107"/>
<feBlend mode="normal" in="SourceGraphic" in2="effect1_dropShadow_849_107" result="shape"/>
</filter>
<linearGradient id="paint0_linear_849_107" x1="49.5098" y1="24.0252" x2="56.7718" y2="0.524537" gradientUnits="userSpaceOnUse">
<stop stop-color="#C6BEE5"/>
<stop offset="0.25" stop-color="#C6BEE5"/>
<stop offset="0.375" stop-color="#C6BEE5"/>
<stop offset="0.40625" stop-color="#C6BEE5"/>
<stop offset="0.419172" stop-color="#C6BEE5"/>
<stop offset="0.421875" stop-color="#C6BEE5"/>
<stop offset="0.425781" stop-color="#C6BDE5"/>
<stop offset="0.429687" stop-color="#C6BCE5"/>
<stop offset="0.433594" stop-color="#C6BCE5"/>
<stop offset="0.4375" stop-color="#C5BBE5"/>
<stop offset="0.441406" stop-color="#C5BBE5"/>
<stop offset="0.445312" stop-color="#C5BAE6"/>
<stop offset="0.449219" stop-color="#C5BAE6"/>
<stop offset="0.453125" stop-color="#C5B9E6"/>
<stop offset="0.457031" stop-color="#C5B9E6"/>
<stop offset="0.460938" stop-color="#C5B8E6"/>
<stop offset="0.464844" stop-color="#C5B8E6"/>
<stop offset="0.46875" stop-color="#C5B7E6"/>
<stop offset="0.472656" stop-color="#C5B7E6"/>
<stop offset="0.476562" stop-color="#C5B6E6"/>
<stop offset="0.480469" stop-color="#C5B5E6"/>
<stop offset="0.484375" stop-color="#C4B5E6"/>
<stop offset="0.488281" stop-color="#C4B4E7"/>
<stop offset="0.492188" stop-color="#C4B4E7"/>
<stop offset="0.496094" stop-color="#C4B3E7"/>
<stop offset="0.5" stop-color="#C4B3E7"/>
<stop offset="0.503906" stop-color="#C4B2E7"/>
<stop offset="0.507812" stop-color="#C4B2E7"/>
<stop offset="0.511719" stop-color="#C4B1E7"/>
<stop offset="0.515625" stop-color="#C4B1E7"/>
<stop offset="0.519531" stop-color="#C4B0E7"/>
<stop offset="0.523438" stop-color="#C4B0E7"/>
<stop offset="0.527344" stop-color="#C3AFE7"/>
<stop offset="0.53125" stop-color="#C3AEE7"/>
<stop offset="0.535156" stop-color="#C3AEE8"/>
<stop offset="0.539062" stop-color="#C3ADE8"/>
<stop offset="0.542969" stop-color="#C3ADE8"/>
<stop offset="0.546875" stop-color="#C3ACE8"/>
<stop offset="0.550781" stop-color="#C3ACE8"/>
<stop offset="0.554688" stop-color="#C3ABE8"/>
<stop offset="0.558594" stop-color="#C3ABE8"/>
<stop offset="0.5625" stop-color="#C3AAE8"/>
<stop offset="0.566406" stop-color="#C3AAE8"/>
<stop offset="0.570312" stop-color="#C3A9E8"/>
<stop offset="0.574219" stop-color="#C2A9E8"/>
<stop offset="0.578125" stop-color="#C2A8E8"/>
<stop offset="0.582031" stop-color="#C2A7E9"/>
<stop offset="0.585938" stop-color="#C2A7E9"/>
<stop offset="0.589844" stop-color="#C2A6E9"/>
<stop offset="0.59375" stop-color="#C2A6E9"/>
<stop offset="0.597656" stop-color="#C2A5E9"/>
<stop offset="0.601562" stop-color="#C2A5E9"/>
<stop offset="0.605469" stop-color="#C2A4E9"/>
<stop offset="0.609375" stop-color="#C2A4E9"/>
<stop offset="0.613281" stop-color="#C2A3E9"/>
<stop offset="0.617188" stop-color="#C2A3E9"/>
<stop offset="0.621094" stop-color="#C1A2E9"/>
<stop offset="0.625" stop-color="#C1A2EA"/>
<stop offset="0.628906" stop-color="#C1A1EA"/>
<stop offset="0.632812" stop-color="#C1A0EA"/>
<stop offset="0.636719" stop-color="#C1A0EA"/>
<stop offset="0.640625" stop-color="#C19FEA"/>
<stop offset="0.644531" stop-color="#C19FEA"/>
<stop offset="0.648438" stop-color="#C19EEA"/>
<stop offset="0.652344" stop-color="#C19EEA"/>
<stop offset="0.65625" stop-color="#C19DEA"/>
<stop offset="0.660156" stop-color="#C19DEA"/>
<stop offset="0.664062" stop-color="#C09CEA"/>
<stop offset="0.667969" stop-color="#C09CEA"/>
<stop offset="0.671875" stop-color="#C09BEB"/>
<stop offset="0.675781" stop-color="#C09BEB"/>
<stop offset="0.679687" stop-color="#C09AEB"/>
<stop offset="0.683594" stop-color="#C09AEB"/>
<stop offset="0.6875" stop-color="#C099EB"/>
<stop offset="0.691406" stop-color="#C098EB"/>
<stop offset="0.695313" stop-color="#C098EB"/>
<stop offset="0.699219" stop-color="#C097EB"/>
<stop offset="0.703125" stop-color="#C097EB"/>
<stop offset="0.707031" stop-color="#C096EB"/>
<stop offset="0.710937" stop-color="#BF96EB"/>
<stop offset="0.714844" stop-color="#BF95EB"/>
<stop offset="0.71875" stop-color="#BF95EC"/>
<stop offset="0.722656" stop-color="#BF94EC"/>
<stop offset="0.726563" stop-color="#BF94EC"/>
<stop offset="0.730469" stop-color="#BE93EB"/>
<stop offset="0.734375" stop-color="#BD91EA"/>
<stop offset="0.738281" stop-color="#BB8FE7"/>
<stop offset="0.742188" stop-color="#B98DE5"/>
<stop offset="0.746094" stop-color="#B68BE2"/>
<stop offset="0.75" stop-color="#B489DF"/>
<stop offset="0.753906" stop-color="#B187DD"/>
<stop offset="0.757812" stop-color="#AF84DA"/>
<stop offset="0.761719" stop-color="#AC82D7"/>
<stop offset="0.765625" stop-color="#AA80D5"/>
<stop offset="0.769531" stop-color="#A87ED2"/>
<stop offset="0.773438" stop-color="#A57CCF"/>
<stop offset="0.777344" stop-color="#A379CD"/>
<stop offset="0.78125" stop-color="#A077CA"/>
<stop offset="0.785156" stop-color="#9E75C7"/>
<stop offset="0.789062" stop-color="#9B73C5"/>
<stop offset="0.792969" stop-color="#9971C2"/>
<stop offset="0.796875" stop-color="#976FBF"/>
<stop offset="0.800781" stop-color="#946CBD"/>
<stop offset="0.804688" stop-color="#926ABA"/>
<stop offset="0.808594" stop-color="#8F68B7"/>
<stop offset="0.8125" stop-color="#8D66B5"/>
<stop offset="0.816406" stop-color="#8A64B2"/>
<stop offset="0.820312" stop-color="#8862AF"/>
<stop offset="0.824219" stop-color="#855FAD"/>
<stop offset="0.828125" stop-color="#835DAA"/>
<stop offset="0.832031" stop-color="#815BA7"/>
<stop offset="0.835938" stop-color="#7E59A5"/>
<stop offset="0.839844" stop-color="#7C57A2"/>
<stop offset="0.84375" stop-color="#7A55A0"/>
<stop offset="0.875" stop-color="#7A55A0"/>
<stop offset="1" stop-color="#7A55A0"/>
</linearGradient>
<linearGradient id="paint1_linear_849_107" x1="52.5445" y1="12.8682" x2="51.0404" y2="21.9274" gradientUnits="userSpaceOnUse">
<stop stop-color="#C6BEE6"/>
<stop offset="0.495" stop-color="#BF93EC"/>
<stop offset="1" stop-color="#79549F"/>
</linearGradient>
</defs>
</svg>
